<mxfile host="app.diagrams.net" modified="2021-11-15T16:51:42.074Z" agent="5.0 (Windows NT 10.0; Win64; x64) AppleWebKit/537.36 (KHTML, like Gecko) Chrome/95.0.4638.69 Safari/537.36" etag="zthTMxR1o8y-iO-doYre" version="15.2.9" type="github">
  <diagram id="pkjGsBKSmeAr7ZB_HK95" name="Page-1">
    <mxGraphModel dx="1783" dy="1123" grid="1" gridSize="10" guides="1" tooltips="1" connect="1" arrows="1" fold="1" page="1" pageScale="1" pageWidth="850" pageHeight="1100" math="0" shadow="0">
      <root>
        <mxCell id="0" />
        <mxCell id="1" parent="0" />
        <mxCell id="Dt_I4PsViv_D9WkN6TSs-124" style="edgeStyle=orthogonalEdgeStyle;rounded=0;orthogonalLoop=1;jettySize=auto;html=1;fontSize=7;endArrow=none;endFill=0;strokeWidth=1;fillColor=#f8cecc;strokeColor=#b85450;entryX=0.833;entryY=0.043;entryDx=0;entryDy=0;entryPerimeter=0;" edge="1" parent="1" target="Dt_I4PsViv_D9WkN6TSs-60">
          <mxGeometry relative="1" as="geometry">
            <mxPoint x="690.0322580645161" y="177.5" as="targetPoint" />
            <mxPoint x="690" y="143" as="sourcePoint" />
          </mxGeometry>
        </mxCell>
        <mxCell id="Dt_I4PsViv_D9WkN6TSs-114" style="edgeStyle=orthogonalEdgeStyle;rounded=0;orthogonalLoop=1;jettySize=auto;html=1;exitX=0;exitY=0.5;exitDx=0;exitDy=0;fontSize=7;endArrow=none;endFill=0;strokeWidth=1;fillColor=#f8cecc;strokeColor=#b85450;entryX=0.773;entryY=0.027;entryDx=0;entryDy=0;entryPerimeter=0;" edge="1" parent="1" target="Dt_I4PsViv_D9WkN6TSs-2">
          <mxGeometry relative="1" as="geometry">
            <mxPoint x="319.92" y="197" as="targetPoint" />
            <mxPoint x="319.92" y="152" as="sourcePoint" />
          </mxGeometry>
        </mxCell>
        <mxCell id="Dt_I4PsViv_D9WkN6TSs-12" value="" style="endArrow=none;html=1;fillColor=#f8cecc;strokeColor=#b85450;exitX=0;exitY=1;exitDx=0;exitDy=0;" edge="1" parent="1" source="Dt_I4PsViv_D9WkN6TSs-38">
          <mxGeometry width="50" height="50" relative="1" as="geometry">
            <mxPoint x="60" y="60" as="sourcePoint" />
            <mxPoint x="820" y="60" as="targetPoint" />
            <Array as="points" />
          </mxGeometry>
        </mxCell>
        <mxCell id="Dt_I4PsViv_D9WkN6TSs-13" value="xx L/s" style="whiteSpace=wrap;html=1;align=center;verticalAlign=middle;treeFolding=1;treeMoving=1;newEdgeStyle={&quot;edgeStyle&quot;:&quot;elbowEdgeStyle&quot;,&quot;startArrow&quot;:&quot;none&quot;,&quot;endArrow&quot;:&quot;none&quot;};fillColor=#f8cecc;strokeColor=#b85450;" vertex="1" parent="1">
          <mxGeometry x="85" y="22" width="70" height="20" as="geometry" />
        </mxCell>
        <mxCell id="Dt_I4PsViv_D9WkN6TSs-14" value="" style="edgeStyle=elbowEdgeStyle;elbow=vertical;startArrow=none;endArrow=none;rounded=0;fillColor=#f8cecc;strokeColor=#b85450;" edge="1" parent="1">
          <mxGeometry relative="1" as="geometry">
            <mxPoint x="145" y="42" as="sourcePoint" />
            <mxPoint x="145.00000000000003" y="60" as="targetPoint" />
          </mxGeometry>
        </mxCell>
        <mxCell id="Dt_I4PsViv_D9WkN6TSs-17" value="" style="endArrow=none;html=1;entryX=0;entryY=0.5;entryDx=0;entryDy=0;" edge="1" parent="1" target="Dt_I4PsViv_D9WkN6TSs-49">
          <mxGeometry width="50" height="50" relative="1" as="geometry">
            <mxPoint x="40" y="160" as="sourcePoint" />
            <mxPoint x="140" y="140" as="targetPoint" />
            <Array as="points">
              <mxPoint x="270" y="160" />
            </Array>
          </mxGeometry>
        </mxCell>
        <mxCell id="Dt_I4PsViv_D9WkN6TSs-18" value="xx L/s" style="whiteSpace=wrap;html=1;align=center;verticalAlign=middle;treeFolding=1;treeMoving=1;newEdgeStyle={&quot;edgeStyle&quot;:&quot;elbowEdgeStyle&quot;,&quot;startArrow&quot;:&quot;none&quot;,&quot;endArrow&quot;:&quot;none&quot;};" vertex="1" parent="1">
          <mxGeometry x="145" y="122" width="70" height="20" as="geometry" />
        </mxCell>
        <mxCell id="Dt_I4PsViv_D9WkN6TSs-19" value="" style="edgeStyle=elbowEdgeStyle;elbow=vertical;startArrow=none;endArrow=none;rounded=0;" edge="1" parent="1">
          <mxGeometry relative="1" as="geometry">
            <mxPoint x="200" y="142" as="sourcePoint" />
            <mxPoint x="200" y="160" as="targetPoint" />
          </mxGeometry>
        </mxCell>
        <mxCell id="Dt_I4PsViv_D9WkN6TSs-22" value="" style="group" vertex="1" connectable="0" parent="1">
          <mxGeometry x="50" y="145" width="30" height="30" as="geometry" />
        </mxCell>
        <mxCell id="Dt_I4PsViv_D9WkN6TSs-20" value="" style="ellipse;whiteSpace=wrap;html=1;aspect=fixed;" vertex="1" parent="Dt_I4PsViv_D9WkN6TSs-22">
          <mxGeometry width="30" height="30" as="geometry" />
        </mxCell>
        <mxCell id="Dt_I4PsViv_D9WkN6TSs-21" value="" style="triangle;whiteSpace=wrap;html=1;" vertex="1" parent="Dt_I4PsViv_D9WkN6TSs-22">
          <mxGeometry x="6" y="3" width="24" height="24" as="geometry" />
        </mxCell>
        <mxCell id="Dt_I4PsViv_D9WkN6TSs-29" value="" style="group" vertex="1" connectable="0" parent="1">
          <mxGeometry x="110" y="155" width="20" height="10" as="geometry" />
        </mxCell>
        <mxCell id="Dt_I4PsViv_D9WkN6TSs-25" value="" style="triangle;whiteSpace=wrap;html=1;" vertex="1" parent="Dt_I4PsViv_D9WkN6TSs-29">
          <mxGeometry width="10" height="10" as="geometry" />
        </mxCell>
        <mxCell id="Dt_I4PsViv_D9WkN6TSs-26" value="" style="triangle;whiteSpace=wrap;html=1;rotation=-180;" vertex="1" parent="Dt_I4PsViv_D9WkN6TSs-29">
          <mxGeometry x="10" width="10" height="10" as="geometry" />
        </mxCell>
        <mxCell id="Dt_I4PsViv_D9WkN6TSs-28" style="edgeStyle=orthogonalEdgeStyle;rounded=0;orthogonalLoop=1;jettySize=auto;html=1;entryX=1;entryY=0.5;entryDx=0;entryDy=0;endArrow=none;endFill=0;" edge="1" parent="Dt_I4PsViv_D9WkN6TSs-29" source="Dt_I4PsViv_D9WkN6TSs-27" target="Dt_I4PsViv_D9WkN6TSs-25">
          <mxGeometry relative="1" as="geometry">
            <Array as="points">
              <mxPoint x="10" y="3.75" />
              <mxPoint x="10" y="3.75" />
            </Array>
          </mxGeometry>
        </mxCell>
        <mxCell id="Dt_I4PsViv_D9WkN6TSs-27" value="" style="rounded=0;whiteSpace=wrap;html=1;fillColor=#f5f5f5;strokeColor=#666666;fontColor=#333333;" vertex="1" parent="Dt_I4PsViv_D9WkN6TSs-29">
          <mxGeometry x="6.666666666666666" width="6.666666666666666" height="2" as="geometry" />
        </mxCell>
        <mxCell id="Dt_I4PsViv_D9WkN6TSs-38" value="&lt;font style=&quot;font-size: 10px&quot; color=&quot;#ff3333&quot;&gt;Steam&lt;/font&gt;" style="text;html=1;strokeColor=none;fillColor=none;align=center;verticalAlign=middle;whiteSpace=wrap;rounded=0;shadow=0;glass=0;sketch=0;fontSize=7;" vertex="1" parent="1">
          <mxGeometry x="40" y="40" width="40" height="20" as="geometry" />
        </mxCell>
        <mxCell id="Dt_I4PsViv_D9WkN6TSs-56" value="" style="group" vertex="1" connectable="0" parent="1">
          <mxGeometry x="261" y="139" width="20" height="38" as="geometry" />
        </mxCell>
        <mxCell id="Dt_I4PsViv_D9WkN6TSs-49" value="" style="whiteSpace=wrap;html=1;rounded=0;shadow=0;glass=0;sketch=0;fontSize=7;fillColor=default;verticalAlign=middle;" vertex="1" parent="Dt_I4PsViv_D9WkN6TSs-56">
          <mxGeometry y="3.454545454545454" width="20" height="34.54545454545455" as="geometry" />
        </mxCell>
        <mxCell id="Dt_I4PsViv_D9WkN6TSs-52" value="" style="endArrow=none;html=1;fontSize=7;exitX=0;exitY=0.5;exitDx=0;exitDy=0;entryX=1;entryY=0.25;entryDx=0;entryDy=0;rounded=0;strokeWidth=2;" edge="1" parent="Dt_I4PsViv_D9WkN6TSs-56" source="Dt_I4PsViv_D9WkN6TSs-49" target="Dt_I4PsViv_D9WkN6TSs-49">
          <mxGeometry y="3.454545454545454" width="25" height="21.59090909090909" as="geometry">
            <mxPoint x="80" y="46.636363636363626" as="sourcePoint" />
            <mxPoint x="105" y="25.045454545454543" as="targetPoint" />
            <Array as="points">
              <mxPoint x="15" y="20.727272727272723" />
              <mxPoint x="15" y="12.09090909090909" />
            </Array>
          </mxGeometry>
        </mxCell>
        <mxCell id="Dt_I4PsViv_D9WkN6TSs-50" value="" style="endArrow=none;html=1;fontSize=7;exitX=0;exitY=0.5;exitDx=0;exitDy=0;entryX=0.5;entryY=1;entryDx=0;entryDy=0;rounded=0;fillColor=#d5e8d4;strokeColor=#82b366;strokeWidth=2;" edge="1" parent="Dt_I4PsViv_D9WkN6TSs-56" source="Dt_I4PsViv_D9WkN6TSs-49" target="Dt_I4PsViv_D9WkN6TSs-49">
          <mxGeometry y="3.454545454545454" width="25" height="21.59090909090909" as="geometry">
            <mxPoint x="70" y="29.36363636363636" as="sourcePoint" />
            <mxPoint x="95" y="7.7727272727272725" as="targetPoint" />
            <Array as="points">
              <mxPoint x="10" y="20.727272727272723" />
            </Array>
          </mxGeometry>
        </mxCell>
        <mxCell id="Dt_I4PsViv_D9WkN6TSs-55" value="" style="rounded=0;whiteSpace=wrap;html=1;shadow=0;glass=0;sketch=0;fontSize=7;fillColor=#000000;verticalAlign=middle;" vertex="1" parent="Dt_I4PsViv_D9WkN6TSs-56">
          <mxGeometry y="-1" width="20" height="1.727272727272727" as="geometry" />
        </mxCell>
        <mxCell id="Dt_I4PsViv_D9WkN6TSs-57" style="edgeStyle=orthogonalEdgeStyle;rounded=0;orthogonalLoop=1;jettySize=auto;html=1;exitX=0.5;exitY=1;exitDx=0;exitDy=0;entryX=0.5;entryY=0;entryDx=0;entryDy=0;entryPerimeter=0;fontSize=7;endArrow=none;endFill=0;strokeWidth=1;" edge="1" parent="1" source="Dt_I4PsViv_D9WkN6TSs-49" target="Dt_I4PsViv_D9WkN6TSs-2">
          <mxGeometry relative="1" as="geometry" />
        </mxCell>
        <mxCell id="Dt_I4PsViv_D9WkN6TSs-58" value="" style="group" vertex="1" connectable="0" parent="1">
          <mxGeometry x="181" y="230" width="270" height="300" as="geometry" />
        </mxCell>
        <mxCell id="Dt_I4PsViv_D9WkN6TSs-2" value="" style="strokeWidth=2;html=1;shape=mxgraph.flowchart.database;whiteSpace=wrap;" vertex="1" parent="Dt_I4PsViv_D9WkN6TSs-58">
          <mxGeometry width="180" height="300" as="geometry" />
        </mxCell>
        <mxCell id="Dt_I4PsViv_D9WkN6TSs-11" value="&lt;b&gt;Tank 1&lt;/b&gt;&lt;br&gt;STAP: 20 - Fill tank&lt;br&gt;TEMP: 30°C" style="html=1;align=left;" vertex="1" parent="Dt_I4PsViv_D9WkN6TSs-58">
          <mxGeometry x="30" y="150" width="120" height="50" as="geometry" />
        </mxCell>
        <mxCell id="Dt_I4PsViv_D9WkN6TSs-15" value="" style="group" vertex="1" connectable="0" parent="Dt_I4PsViv_D9WkN6TSs-58">
          <mxGeometry x="10" y="90" width="10" height="170" as="geometry" />
        </mxCell>
        <mxCell id="Dt_I4PsViv_D9WkN6TSs-3" value="" style="verticalLabelPosition=bottom;verticalAlign=top;html=1;shape=mxgraph.basic.rect;fillColor2=none;strokeWidth=1;size=20;indent=5;" vertex="1" parent="Dt_I4PsViv_D9WkN6TSs-15">
          <mxGeometry width="10" height="170" as="geometry" />
        </mxCell>
        <mxCell id="Dt_I4PsViv_D9WkN6TSs-4" value="" style="verticalLabelPosition=bottom;verticalAlign=top;html=1;shape=mxgraph.basic.rect;fillColor2=none;strokeWidth=1;size=20;indent=5;fillColor=#d5e8d4;strokeColor=#82b366;" vertex="1" parent="Dt_I4PsViv_D9WkN6TSs-15">
          <mxGeometry y="47.6" width="10" height="122.4" as="geometry" />
        </mxCell>
        <mxCell id="Dt_I4PsViv_D9WkN6TSs-32" value="LSH" style="fillColor=default;strokeColor=#666666;fontColor=#333333;glass=0;rounded=0;shadow=0;sketch=0;align=center;verticalAlign=middle;horizontal=1;labelPosition=center;verticalLabelPosition=middle;html=1;spacing=0;whiteSpace=wrap;fontSize=7;" vertex="1" parent="Dt_I4PsViv_D9WkN6TSs-58">
          <mxGeometry x="190" y="60" width="30" height="10" as="geometry" />
        </mxCell>
        <mxCell id="Dt_I4PsViv_D9WkN6TSs-33" value="xxx L" style="html=1;fillColor=#dae8fc;strokeColor=#6c8ebf;" vertex="1" parent="Dt_I4PsViv_D9WkN6TSs-58">
          <mxGeometry x="190" y="220" width="80" height="20" as="geometry" />
        </mxCell>
        <mxCell id="Dt_I4PsViv_D9WkN6TSs-34" value="xxx °C" style="html=1;fillColor=#dae8fc;strokeColor=#6c8ebf;" vertex="1" parent="Dt_I4PsViv_D9WkN6TSs-58">
          <mxGeometry x="190" y="190" width="80" height="20" as="geometry" />
        </mxCell>
        <mxCell id="Dt_I4PsViv_D9WkN6TSs-37" value="LSL" style="fillColor=default;strokeColor=#666666;fontColor=#333333;glass=0;rounded=0;shadow=0;sketch=0;align=center;verticalAlign=middle;horizontal=1;labelPosition=center;verticalLabelPosition=middle;html=1;spacing=0;whiteSpace=wrap;fontSize=7;" vertex="1" parent="Dt_I4PsViv_D9WkN6TSs-58">
          <mxGeometry x="190" y="250" width="30" height="10" as="geometry" />
        </mxCell>
        <mxCell id="Dt_I4PsViv_D9WkN6TSs-126" value="&lt;font style=&quot;font-size: 10px&quot;&gt;Increase Temperature&lt;/font&gt;" style="labelPosition=center;verticalLabelPosition=middle;align=center;html=1;shape=mxgraph.basic.shaded_button;dx=10;fillColor=#f8cecc;strokeColor=#b85450;rounded=1;shadow=0;glass=0;sketch=0;fontSize=7;" vertex="1" parent="Dt_I4PsViv_D9WkN6TSs-58">
          <mxGeometry x="30" y="210" width="120" height="40" as="geometry" />
        </mxCell>
        <mxCell id="Dt_I4PsViv_D9WkN6TSs-59" value="" style="group" vertex="1" connectable="0" parent="1">
          <mxGeometry x="540" y="230" width="270" height="300" as="geometry" />
        </mxCell>
        <mxCell id="Dt_I4PsViv_D9WkN6TSs-60" value="" style="strokeWidth=2;html=1;shape=mxgraph.flowchart.database;whiteSpace=wrap;" vertex="1" parent="Dt_I4PsViv_D9WkN6TSs-59">
          <mxGeometry width="180" height="300" as="geometry" />
        </mxCell>
        <mxCell id="Dt_I4PsViv_D9WkN6TSs-61" value="&lt;b&gt;Tank 2&lt;/b&gt;&lt;br&gt;STAP: 20 - Fill tank&lt;br&gt;TEMP: 30°C" style="html=1;align=left;" vertex="1" parent="Dt_I4PsViv_D9WkN6TSs-59">
          <mxGeometry x="35" y="150" width="120" height="50" as="geometry" />
        </mxCell>
        <mxCell id="Dt_I4PsViv_D9WkN6TSs-62" value="" style="group" vertex="1" connectable="0" parent="Dt_I4PsViv_D9WkN6TSs-59">
          <mxGeometry x="10" y="90" width="10" height="170" as="geometry" />
        </mxCell>
        <mxCell id="Dt_I4PsViv_D9WkN6TSs-63" value="" style="verticalLabelPosition=bottom;verticalAlign=top;html=1;shape=mxgraph.basic.rect;fillColor2=none;strokeWidth=1;size=20;indent=5;" vertex="1" parent="Dt_I4PsViv_D9WkN6TSs-62">
          <mxGeometry width="10" height="170" as="geometry" />
        </mxCell>
        <mxCell id="Dt_I4PsViv_D9WkN6TSs-64" value="" style="verticalLabelPosition=bottom;verticalAlign=top;html=1;shape=mxgraph.basic.rect;fillColor2=none;strokeWidth=1;size=20;indent=5;fillColor=#d5e8d4;strokeColor=#82b366;" vertex="1" parent="Dt_I4PsViv_D9WkN6TSs-62">
          <mxGeometry y="47.6" width="10" height="122.4" as="geometry" />
        </mxCell>
        <mxCell id="Dt_I4PsViv_D9WkN6TSs-65" value="LSH" style="fillColor=default;strokeColor=#666666;fontColor=#333333;glass=0;rounded=0;shadow=0;sketch=0;align=center;verticalAlign=middle;horizontal=1;labelPosition=center;verticalLabelPosition=middle;html=1;spacing=0;whiteSpace=wrap;fontSize=7;" vertex="1" parent="Dt_I4PsViv_D9WkN6TSs-59">
          <mxGeometry x="190" y="60" width="30" height="10" as="geometry" />
        </mxCell>
        <mxCell id="Dt_I4PsViv_D9WkN6TSs-66" value="xxx L" style="html=1;fillColor=#dae8fc;strokeColor=#6c8ebf;" vertex="1" parent="Dt_I4PsViv_D9WkN6TSs-59">
          <mxGeometry x="190" y="220" width="80" height="20" as="geometry" />
        </mxCell>
        <mxCell id="Dt_I4PsViv_D9WkN6TSs-67" value="xxx °C" style="html=1;fillColor=#dae8fc;strokeColor=#6c8ebf;" vertex="1" parent="Dt_I4PsViv_D9WkN6TSs-59">
          <mxGeometry x="190" y="190" width="80" height="20" as="geometry" />
        </mxCell>
        <mxCell id="Dt_I4PsViv_D9WkN6TSs-68" value="LSL" style="fillColor=default;strokeColor=#666666;fontColor=#333333;glass=0;rounded=0;shadow=0;sketch=0;align=center;verticalAlign=middle;horizontal=1;labelPosition=center;verticalLabelPosition=middle;html=1;spacing=0;whiteSpace=wrap;fontSize=7;" vertex="1" parent="Dt_I4PsViv_D9WkN6TSs-59">
          <mxGeometry x="190" y="250" width="30" height="10" as="geometry" />
        </mxCell>
        <mxCell id="Dt_I4PsViv_D9WkN6TSs-127" value="&lt;font style=&quot;font-size: 10px&quot;&gt;Increase Temperature&lt;/font&gt;" style="labelPosition=center;verticalLabelPosition=middle;align=center;html=1;shape=mxgraph.basic.shaded_button;dx=10;fillColor=#f8cecc;strokeColor=#b85450;rounded=1;shadow=0;glass=0;sketch=0;fontSize=7;" vertex="1" parent="Dt_I4PsViv_D9WkN6TSs-59">
          <mxGeometry x="35" y="210" width="120" height="40" as="geometry" />
        </mxCell>
        <mxCell id="Dt_I4PsViv_D9WkN6TSs-69" value="" style="group" vertex="1" connectable="0" parent="1">
          <mxGeometry x="620" y="130" width="20" height="38" as="geometry" />
        </mxCell>
        <mxCell id="Dt_I4PsViv_D9WkN6TSs-70" value="" style="whiteSpace=wrap;html=1;rounded=0;shadow=0;glass=0;sketch=0;fontSize=7;fillColor=default;verticalAlign=middle;" vertex="1" parent="Dt_I4PsViv_D9WkN6TSs-69">
          <mxGeometry y="3.454545454545454" width="20" height="34.54545454545455" as="geometry" />
        </mxCell>
        <mxCell id="Dt_I4PsViv_D9WkN6TSs-71" value="" style="endArrow=none;html=1;fontSize=7;exitX=0;exitY=0.5;exitDx=0;exitDy=0;entryX=1;entryY=0.25;entryDx=0;entryDy=0;rounded=0;strokeWidth=2;" edge="1" parent="Dt_I4PsViv_D9WkN6TSs-69" source="Dt_I4PsViv_D9WkN6TSs-70" target="Dt_I4PsViv_D9WkN6TSs-70">
          <mxGeometry y="3.454545454545454" width="25" height="21.59090909090909" as="geometry">
            <mxPoint x="80" y="46.636363636363626" as="sourcePoint" />
            <mxPoint x="105" y="25.045454545454543" as="targetPoint" />
            <Array as="points">
              <mxPoint x="15" y="20.727272727272723" />
              <mxPoint x="15" y="12.09090909090909" />
            </Array>
          </mxGeometry>
        </mxCell>
        <mxCell id="Dt_I4PsViv_D9WkN6TSs-72" value="" style="endArrow=none;html=1;fontSize=7;exitX=0;exitY=0.5;exitDx=0;exitDy=0;entryX=0.5;entryY=1;entryDx=0;entryDy=0;rounded=0;fillColor=#d5e8d4;strokeColor=#82b366;strokeWidth=2;" edge="1" parent="Dt_I4PsViv_D9WkN6TSs-69" source="Dt_I4PsViv_D9WkN6TSs-70" target="Dt_I4PsViv_D9WkN6TSs-70">
          <mxGeometry y="3.454545454545454" width="25" height="21.59090909090909" as="geometry">
            <mxPoint x="70" y="29.36363636363636" as="sourcePoint" />
            <mxPoint x="95" y="7.7727272727272725" as="targetPoint" />
            <Array as="points">
              <mxPoint x="10" y="20.727272727272723" />
            </Array>
          </mxGeometry>
        </mxCell>
        <mxCell id="Dt_I4PsViv_D9WkN6TSs-73" value="" style="rounded=0;whiteSpace=wrap;html=1;shadow=0;glass=0;sketch=0;fontSize=7;fillColor=#000000;verticalAlign=middle;" vertex="1" parent="Dt_I4PsViv_D9WkN6TSs-69">
          <mxGeometry y="-1" width="20" height="1.727272727272727" as="geometry" />
        </mxCell>
        <mxCell id="Dt_I4PsViv_D9WkN6TSs-74" style="edgeStyle=orthogonalEdgeStyle;rounded=0;orthogonalLoop=1;jettySize=auto;html=1;exitX=1;exitY=0.25;exitDx=0;exitDy=0;fontSize=7;endArrow=none;endFill=0;strokeWidth=1;entryX=0;entryY=0.5;entryDx=0;entryDy=0;" edge="1" parent="1" source="Dt_I4PsViv_D9WkN6TSs-49" target="Dt_I4PsViv_D9WkN6TSs-70">
          <mxGeometry relative="1" as="geometry">
            <mxPoint x="620" y="160" as="targetPoint" />
          </mxGeometry>
        </mxCell>
        <mxCell id="Dt_I4PsViv_D9WkN6TSs-75" style="edgeStyle=orthogonalEdgeStyle;rounded=0;orthogonalLoop=1;jettySize=auto;html=1;exitX=0.5;exitY=1;exitDx=0;exitDy=0;entryX=0.5;entryY=0;entryDx=0;entryDy=0;entryPerimeter=0;fontSize=7;endArrow=none;endFill=0;strokeWidth=1;" edge="1" parent="1" source="Dt_I4PsViv_D9WkN6TSs-70" target="Dt_I4PsViv_D9WkN6TSs-60">
          <mxGeometry relative="1" as="geometry" />
        </mxCell>
        <mxCell id="Dt_I4PsViv_D9WkN6TSs-76" style="edgeStyle=orthogonalEdgeStyle;rounded=0;orthogonalLoop=1;jettySize=auto;html=1;exitX=1;exitY=0.25;exitDx=0;exitDy=0;fontSize=7;endArrow=none;endFill=0;strokeWidth=1;" edge="1" parent="1" source="Dt_I4PsViv_D9WkN6TSs-70">
          <mxGeometry relative="1" as="geometry">
            <mxPoint x="820" y="142.22222222222223" as="targetPoint" />
          </mxGeometry>
        </mxCell>
        <mxCell id="Dt_I4PsViv_D9WkN6TSs-77" value="" style="group;rotation=-180;" vertex="1" connectable="0" parent="1">
          <mxGeometry x="261" y="585" width="20" height="38" as="geometry" />
        </mxCell>
        <mxCell id="Dt_I4PsViv_D9WkN6TSs-78" value="" style="whiteSpace=wrap;html=1;rounded=0;shadow=0;glass=0;sketch=0;fontSize=7;fillColor=default;verticalAlign=middle;rotation=-180;" vertex="1" parent="Dt_I4PsViv_D9WkN6TSs-77">
          <mxGeometry width="20" height="34.54545454545455" as="geometry" />
        </mxCell>
        <mxCell id="Dt_I4PsViv_D9WkN6TSs-79" value="" style="endArrow=none;html=1;fontSize=7;exitX=0;exitY=0.5;exitDx=0;exitDy=0;entryX=1;entryY=0.25;entryDx=0;entryDy=0;rounded=0;strokeWidth=2;" edge="1" parent="Dt_I4PsViv_D9WkN6TSs-77" source="Dt_I4PsViv_D9WkN6TSs-78" target="Dt_I4PsViv_D9WkN6TSs-78">
          <mxGeometry x="-5" y="13" width="25" height="21.59090909090909" as="geometry">
            <mxPoint x="-60" y="-9" as="sourcePoint" />
            <mxPoint x="-85" y="13" as="targetPoint" />
            <Array as="points">
              <mxPoint x="5" y="17" />
              <mxPoint x="5" y="26" />
            </Array>
          </mxGeometry>
        </mxCell>
        <mxCell id="Dt_I4PsViv_D9WkN6TSs-80" value="" style="endArrow=none;html=1;fontSize=7;exitX=0;exitY=0.5;exitDx=0;exitDy=0;entryX=0.5;entryY=1;entryDx=0;entryDy=0;rounded=0;fillColor=#d5e8d4;strokeColor=#82b366;strokeWidth=2;" edge="1" parent="Dt_I4PsViv_D9WkN6TSs-77" source="Dt_I4PsViv_D9WkN6TSs-78" target="Dt_I4PsViv_D9WkN6TSs-78">
          <mxGeometry x="-5" y="13" width="25" height="21.59090909090909" as="geometry">
            <mxPoint x="-50" y="9" as="sourcePoint" />
            <mxPoint x="-75" y="30" as="targetPoint" />
            <Array as="points">
              <mxPoint x="10" y="17" />
            </Array>
          </mxGeometry>
        </mxCell>
        <mxCell id="Dt_I4PsViv_D9WkN6TSs-81" value="" style="rounded=0;whiteSpace=wrap;html=1;shadow=0;glass=0;sketch=0;fontSize=7;fillColor=#000000;verticalAlign=middle;rotation=-180;" vertex="1" parent="Dt_I4PsViv_D9WkN6TSs-77">
          <mxGeometry y="37" width="20" height="1.727272727272727" as="geometry" />
        </mxCell>
        <mxCell id="Dt_I4PsViv_D9WkN6TSs-82" style="edgeStyle=orthogonalEdgeStyle;rounded=0;orthogonalLoop=1;jettySize=auto;html=1;exitX=0.5;exitY=1;exitDx=0;exitDy=0;entryX=0.5;entryY=1;entryDx=0;entryDy=0;entryPerimeter=0;fontSize=7;endArrow=none;endFill=0;strokeWidth=1;" edge="1" parent="1" source="Dt_I4PsViv_D9WkN6TSs-78" target="Dt_I4PsViv_D9WkN6TSs-2">
          <mxGeometry relative="1" as="geometry" />
        </mxCell>
        <mxCell id="Dt_I4PsViv_D9WkN6TSs-88" value="" style="group;rotation=-180;" vertex="1" connectable="0" parent="1">
          <mxGeometry x="620" y="577" width="20" height="38" as="geometry" />
        </mxCell>
        <mxCell id="Dt_I4PsViv_D9WkN6TSs-89" value="" style="whiteSpace=wrap;html=1;rounded=0;shadow=0;glass=0;sketch=0;fontSize=7;fillColor=default;verticalAlign=middle;rotation=-180;" vertex="1" parent="Dt_I4PsViv_D9WkN6TSs-88">
          <mxGeometry width="20" height="34.54545454545455" as="geometry" />
        </mxCell>
        <mxCell id="Dt_I4PsViv_D9WkN6TSs-90" value="" style="endArrow=none;html=1;fontSize=7;exitX=0;exitY=0.5;exitDx=0;exitDy=0;entryX=1;entryY=0.25;entryDx=0;entryDy=0;rounded=0;strokeWidth=2;" edge="1" parent="Dt_I4PsViv_D9WkN6TSs-88" source="Dt_I4PsViv_D9WkN6TSs-89" target="Dt_I4PsViv_D9WkN6TSs-89">
          <mxGeometry x="-5" y="13" width="25" height="21.59090909090909" as="geometry">
            <mxPoint x="-60" y="-9" as="sourcePoint" />
            <mxPoint x="-85" y="13" as="targetPoint" />
            <Array as="points">
              <mxPoint x="5" y="17" />
              <mxPoint x="5" y="26" />
            </Array>
          </mxGeometry>
        </mxCell>
        <mxCell id="Dt_I4PsViv_D9WkN6TSs-91" value="" style="endArrow=none;html=1;fontSize=7;exitX=0;exitY=0.5;exitDx=0;exitDy=0;entryX=0.5;entryY=1;entryDx=0;entryDy=0;rounded=0;fillColor=#d5e8d4;strokeColor=#82b366;strokeWidth=2;" edge="1" parent="Dt_I4PsViv_D9WkN6TSs-88" source="Dt_I4PsViv_D9WkN6TSs-89" target="Dt_I4PsViv_D9WkN6TSs-89">
          <mxGeometry x="-5" y="13" width="25" height="21.59090909090909" as="geometry">
            <mxPoint x="-50" y="9" as="sourcePoint" />
            <mxPoint x="-75" y="30" as="targetPoint" />
            <Array as="points">
              <mxPoint x="10" y="17" />
            </Array>
          </mxGeometry>
        </mxCell>
        <mxCell id="Dt_I4PsViv_D9WkN6TSs-92" value="" style="rounded=0;whiteSpace=wrap;html=1;shadow=0;glass=0;sketch=0;fontSize=7;fillColor=#000000;verticalAlign=middle;rotation=-180;" vertex="1" parent="Dt_I4PsViv_D9WkN6TSs-88">
          <mxGeometry y="37" width="20" height="1.727272727272727" as="geometry" />
        </mxCell>
        <mxCell id="Dt_I4PsViv_D9WkN6TSs-93" style="edgeStyle=orthogonalEdgeStyle;rounded=0;orthogonalLoop=1;jettySize=auto;html=1;exitX=0.5;exitY=1;exitDx=0;exitDy=0;exitPerimeter=0;fontSize=7;endArrow=none;endFill=0;strokeWidth=1;entryX=0.5;entryY=1;entryDx=0;entryDy=0;" edge="1" parent="1" source="Dt_I4PsViv_D9WkN6TSs-60" target="Dt_I4PsViv_D9WkN6TSs-89">
          <mxGeometry relative="1" as="geometry">
            <mxPoint x="640" y="580" as="targetPoint" />
          </mxGeometry>
        </mxCell>
        <mxCell id="Dt_I4PsViv_D9WkN6TSs-94" style="edgeStyle=orthogonalEdgeStyle;rounded=0;orthogonalLoop=1;jettySize=auto;html=1;exitX=0;exitY=0.5;exitDx=0;exitDy=0;entryX=1;entryY=0.25;entryDx=0;entryDy=0;fontSize=7;endArrow=none;endFill=0;strokeWidth=1;" edge="1" parent="1" source="Dt_I4PsViv_D9WkN6TSs-78" target="Dt_I4PsViv_D9WkN6TSs-89">
          <mxGeometry relative="1" as="geometry" />
        </mxCell>
        <mxCell id="Dt_I4PsViv_D9WkN6TSs-95" style="edgeStyle=orthogonalEdgeStyle;rounded=0;orthogonalLoop=1;jettySize=auto;html=1;exitX=0;exitY=0.5;exitDx=0;exitDy=0;fontSize=7;endArrow=none;endFill=0;strokeWidth=1;" edge="1" parent="1" source="Dt_I4PsViv_D9WkN6TSs-89">
          <mxGeometry relative="1" as="geometry">
            <mxPoint x="820" y="594.2857142857142" as="targetPoint" />
          </mxGeometry>
        </mxCell>
        <mxCell id="Dt_I4PsViv_D9WkN6TSs-96" style="edgeStyle=orthogonalEdgeStyle;rounded=0;orthogonalLoop=1;jettySize=auto;html=1;exitX=1;exitY=0.25;exitDx=0;exitDy=0;fontSize=7;endArrow=none;endFill=0;strokeWidth=1;" edge="1" parent="1" source="Dt_I4PsViv_D9WkN6TSs-78">
          <mxGeometry relative="1" as="geometry">
            <mxPoint x="19.53488372093023" y="610.8139534883721" as="targetPoint" />
          </mxGeometry>
        </mxCell>
        <mxCell id="Dt_I4PsViv_D9WkN6TSs-40" value="" style="group" vertex="1" connectable="0" parent="1">
          <mxGeometry x="301" y="588" width="30" height="30" as="geometry" />
        </mxCell>
        <mxCell id="Dt_I4PsViv_D9WkN6TSs-41" value="" style="ellipse;whiteSpace=wrap;html=1;aspect=fixed;" vertex="1" parent="Dt_I4PsViv_D9WkN6TSs-40">
          <mxGeometry width="30" height="30" as="geometry" />
        </mxCell>
        <mxCell id="Dt_I4PsViv_D9WkN6TSs-42" value="" style="triangle;whiteSpace=wrap;html=1;" vertex="1" parent="Dt_I4PsViv_D9WkN6TSs-40">
          <mxGeometry x="6" y="3" width="24" height="24" as="geometry" />
        </mxCell>
        <mxCell id="Dt_I4PsViv_D9WkN6TSs-97" value="" style="group" vertex="1" connectable="0" parent="1">
          <mxGeometry x="660" y="580" width="30" height="30" as="geometry" />
        </mxCell>
        <mxCell id="Dt_I4PsViv_D9WkN6TSs-98" value="" style="ellipse;whiteSpace=wrap;html=1;aspect=fixed;" vertex="1" parent="Dt_I4PsViv_D9WkN6TSs-97">
          <mxGeometry width="30" height="30" as="geometry" />
        </mxCell>
        <mxCell id="Dt_I4PsViv_D9WkN6TSs-99" value="" style="triangle;whiteSpace=wrap;html=1;" vertex="1" parent="Dt_I4PsViv_D9WkN6TSs-97">
          <mxGeometry x="6" y="3" width="24" height="24" as="geometry" />
        </mxCell>
        <mxCell id="Dt_I4PsViv_D9WkN6TSs-112" style="edgeStyle=orthogonalEdgeStyle;rounded=0;orthogonalLoop=1;jettySize=auto;html=1;exitX=0;exitY=0.5;exitDx=0;exitDy=0;fontSize=7;endArrow=none;endFill=0;strokeWidth=1;fillColor=#f8cecc;strokeColor=#b85450;" edge="1" parent="1" source="Dt_I4PsViv_D9WkN6TSs-106">
          <mxGeometry relative="1" as="geometry">
            <mxPoint x="320" y="60" as="targetPoint" />
          </mxGeometry>
        </mxCell>
        <mxCell id="Dt_I4PsViv_D9WkN6TSs-113" style="edgeStyle=orthogonalEdgeStyle;rounded=0;orthogonalLoop=1;jettySize=auto;html=1;exitX=0;exitY=0.5;exitDx=0;exitDy=0;fontSize=7;endArrow=none;endFill=0;strokeWidth=1;fillColor=#f8cecc;strokeColor=#b85450;" edge="1" parent="1" source="Dt_I4PsViv_D9WkN6TSs-107">
          <mxGeometry relative="1" as="geometry">
            <mxPoint x="320" y="150" as="targetPoint" />
          </mxGeometry>
        </mxCell>
        <mxCell id="Dt_I4PsViv_D9WkN6TSs-116" value="" style="group;rotation=90;" vertex="1" connectable="0" parent="1">
          <mxGeometry x="680" y="89.38" width="20" height="11.25" as="geometry" />
        </mxCell>
        <mxCell id="Dt_I4PsViv_D9WkN6TSs-117" value="" style="triangle;whiteSpace=wrap;html=1;rotation=90;fillColor=#f8cecc;strokeColor=#b85450;" vertex="1" parent="Dt_I4PsViv_D9WkN6TSs-116">
          <mxGeometry x="5" y="-5" width="10" height="10" as="geometry" />
        </mxCell>
        <mxCell id="Dt_I4PsViv_D9WkN6TSs-118" value="" style="triangle;whiteSpace=wrap;html=1;rotation=-90;fillColor=#f8cecc;strokeColor=#b85450;" vertex="1" parent="Dt_I4PsViv_D9WkN6TSs-116">
          <mxGeometry x="5" y="5" width="10" height="10" as="geometry" />
        </mxCell>
        <mxCell id="Dt_I4PsViv_D9WkN6TSs-119" style="edgeStyle=orthogonalEdgeStyle;rounded=0;orthogonalLoop=1;jettySize=auto;html=1;entryX=1;entryY=0.5;entryDx=0;entryDy=0;endArrow=none;endFill=0;fillColor=#f8cecc;strokeColor=#b85450;" edge="1" parent="Dt_I4PsViv_D9WkN6TSs-116" source="Dt_I4PsViv_D9WkN6TSs-120" target="Dt_I4PsViv_D9WkN6TSs-117">
          <mxGeometry relative="1" as="geometry">
            <Array as="points">
              <mxPoint x="11" y="5" />
              <mxPoint x="11" y="5" />
            </Array>
          </mxGeometry>
        </mxCell>
        <mxCell id="Dt_I4PsViv_D9WkN6TSs-120" value="" style="rounded=0;whiteSpace=wrap;html=1;fillColor=#f5f5f5;strokeColor=#666666;fontColor=#333333;rotation=90;" vertex="1" parent="Dt_I4PsViv_D9WkN6TSs-116">
          <mxGeometry x="11" y="4" width="6.666666666666666" height="2" as="geometry" />
        </mxCell>
        <mxCell id="Dt_I4PsViv_D9WkN6TSs-134" value="" style="shape=singleArrow;direction=south;whiteSpace=wrap;html=1;rounded=1;shadow=0;glass=0;sketch=0;fontSize=7;fillColor=#B85450;verticalAlign=middle;strokeWidth=0;arrowWidth=0.2041343669250687;arrowSize=0.44883720930232585;strokeColor=#b85450;" vertex="1" parent="Dt_I4PsViv_D9WkN6TSs-116">
          <mxGeometry y="-1.25" width="7.5" height="12.5" as="geometry" />
        </mxCell>
        <mxCell id="Dt_I4PsViv_D9WkN6TSs-122" style="edgeStyle=orthogonalEdgeStyle;rounded=0;orthogonalLoop=1;jettySize=auto;html=1;exitX=0;exitY=0.5;exitDx=0;exitDy=0;fontSize=7;endArrow=none;endFill=0;strokeWidth=1;fillColor=#f8cecc;strokeColor=#b85450;" edge="1" parent="1" source="Dt_I4PsViv_D9WkN6TSs-117">
          <mxGeometry relative="1" as="geometry">
            <mxPoint x="690.0322580645161" y="60" as="targetPoint" />
          </mxGeometry>
        </mxCell>
        <mxCell id="Dt_I4PsViv_D9WkN6TSs-123" style="edgeStyle=orthogonalEdgeStyle;rounded=0;orthogonalLoop=1;jettySize=auto;html=1;exitX=0;exitY=0.5;exitDx=0;exitDy=0;fontSize=7;endArrow=none;endFill=0;strokeWidth=1;fillColor=#f8cecc;strokeColor=#b85450;" edge="1" parent="1" source="Dt_I4PsViv_D9WkN6TSs-118">
          <mxGeometry relative="1" as="geometry">
            <mxPoint x="690" y="141" as="targetPoint" />
          </mxGeometry>
        </mxCell>
        <mxCell id="Dt_I4PsViv_D9WkN6TSs-128" value="&lt;font style=&quot;font-size: 12px&quot;&gt;TANK STEPS&lt;/font&gt;" style="swimlane;fontStyle=0;childLayout=stackLayout;horizontal=1;startSize=26;fillColor=none;horizontalStack=0;resizeParent=1;resizeParentMax=0;resizeLast=0;collapsible=1;marginBottom=0;rounded=1;shadow=0;glass=0;sketch=0;fontSize=7;verticalAlign=middle;html=1;" vertex="1" parent="1">
          <mxGeometry x="40" y="650" width="170" height="364" as="geometry" />
        </mxCell>
        <mxCell id="Dt_I4PsViv_D9WkN6TSs-129" value="0: Empty (standstill)" style="text;strokeColor=none;fillColor=none;align=left;verticalAlign=top;spacingLeft=4;spacingRight=4;overflow=hidden;rotatable=0;points=[[0,0.5],[1,0.5]];portConstraint=eastwest;" vertex="1" parent="Dt_I4PsViv_D9WkN6TSs-128">
          <mxGeometry y="26" width="170" height="26" as="geometry" />
        </mxCell>
        <mxCell id="Dt_I4PsViv_D9WkN6TSs-130" value="8: Open inlet valve" style="text;strokeColor=none;fillColor=none;align=left;verticalAlign=top;spacingLeft=4;spacingRight=4;overflow=hidden;rotatable=0;points=[[0,0.5],[1,0.5]];portConstraint=eastwest;" vertex="1" parent="Dt_I4PsViv_D9WkN6TSs-128">
          <mxGeometry y="52" width="170" height="26" as="geometry" />
        </mxCell>
        <mxCell id="Dt_I4PsViv_D9WkN6TSs-131" value="9: Start feeding line pump" style="text;strokeColor=none;fillColor=none;align=left;verticalAlign=top;spacingLeft=4;spacingRight=4;overflow=hidden;rotatable=0;points=[[0,0.5],[1,0.5]];portConstraint=eastwest;" vertex="1" parent="Dt_I4PsViv_D9WkN6TSs-128">
          <mxGeometry y="78" width="170" height="26" as="geometry" />
        </mxCell>
        <mxCell id="Dt_I4PsViv_D9WkN6TSs-135" value="10: Fill tank" style="text;strokeColor=none;fillColor=none;align=left;verticalAlign=top;spacingLeft=4;spacingRight=4;overflow=hidden;rotatable=0;points=[[0,0.5],[1,0.5]];portConstraint=eastwest;" vertex="1" parent="Dt_I4PsViv_D9WkN6TSs-128">
          <mxGeometry y="104" width="170" height="26" as="geometry" />
        </mxCell>
        <mxCell id="Dt_I4PsViv_D9WkN6TSs-136" value="11: Stop feeding line pump" style="text;strokeColor=none;fillColor=none;align=left;verticalAlign=top;spacingLeft=4;spacingRight=4;overflow=hidden;rotatable=0;points=[[0,0.5],[1,0.5]];portConstraint=eastwest;" vertex="1" parent="Dt_I4PsViv_D9WkN6TSs-128">
          <mxGeometry y="130" width="170" height="26" as="geometry" />
        </mxCell>
        <mxCell id="Dt_I4PsViv_D9WkN6TSs-137" value="12: Close inlet valve" style="text;strokeColor=none;fillColor=none;align=left;verticalAlign=top;spacingLeft=4;spacingRight=4;overflow=hidden;rotatable=0;points=[[0,0.5],[1,0.5]];portConstraint=eastwest;" vertex="1" parent="Dt_I4PsViv_D9WkN6TSs-128">
          <mxGeometry y="156" width="170" height="26" as="geometry" />
        </mxCell>
        <mxCell id="Dt_I4PsViv_D9WkN6TSs-138" value="20: Full (standstill)" style="text;strokeColor=none;fillColor=none;align=left;verticalAlign=top;spacingLeft=4;spacingRight=4;overflow=hidden;rotatable=0;points=[[0,0.5],[1,0.5]];portConstraint=eastwest;" vertex="1" parent="Dt_I4PsViv_D9WkN6TSs-128">
          <mxGeometry y="182" width="170" height="26" as="geometry" />
        </mxCell>
        <mxCell id="Dt_I4PsViv_D9WkN6TSs-139" value="25: Heating" style="text;strokeColor=none;fillColor=none;align=left;verticalAlign=top;spacingLeft=4;spacingRight=4;overflow=hidden;rotatable=0;points=[[0,0.5],[1,0.5]];portConstraint=eastwest;" vertex="1" parent="Dt_I4PsViv_D9WkN6TSs-128">
          <mxGeometry y="208" width="170" height="26" as="geometry" />
        </mxCell>
        <mxCell id="Dt_I4PsViv_D9WkN6TSs-140" value="28: Open outlet valve" style="text;strokeColor=none;fillColor=none;align=left;verticalAlign=top;spacingLeft=4;spacingRight=4;overflow=hidden;rotatable=0;points=[[0,0.5],[1,0.5]];portConstraint=eastwest;" vertex="1" parent="Dt_I4PsViv_D9WkN6TSs-128">
          <mxGeometry y="234" width="170" height="26" as="geometry" />
        </mxCell>
        <mxCell id="Dt_I4PsViv_D9WkN6TSs-141" value="29: Start draining pump" style="text;strokeColor=none;fillColor=none;align=left;verticalAlign=top;spacingLeft=4;spacingRight=4;overflow=hidden;rotatable=0;points=[[0,0.5],[1,0.5]];portConstraint=eastwest;" vertex="1" parent="Dt_I4PsViv_D9WkN6TSs-128">
          <mxGeometry y="260" width="170" height="26" as="geometry" />
        </mxCell>
        <mxCell id="Dt_I4PsViv_D9WkN6TSs-142" value="30: Empty tank" style="text;strokeColor=none;fillColor=none;align=left;verticalAlign=top;spacingLeft=4;spacingRight=4;overflow=hidden;rotatable=0;points=[[0,0.5],[1,0.5]];portConstraint=eastwest;" vertex="1" parent="Dt_I4PsViv_D9WkN6TSs-128">
          <mxGeometry y="286" width="170" height="26" as="geometry" />
        </mxCell>
        <mxCell id="Dt_I4PsViv_D9WkN6TSs-143" value="31: Stop draining pump" style="text;strokeColor=none;fillColor=none;align=left;verticalAlign=top;spacingLeft=4;spacingRight=4;overflow=hidden;rotatable=0;points=[[0,0.5],[1,0.5]];portConstraint=eastwest;" vertex="1" parent="Dt_I4PsViv_D9WkN6TSs-128">
          <mxGeometry y="312" width="170" height="26" as="geometry" />
        </mxCell>
        <mxCell id="Dt_I4PsViv_D9WkN6TSs-144" value="32: Close outlet valve" style="text;strokeColor=none;fillColor=none;align=left;verticalAlign=top;spacingLeft=4;spacingRight=4;overflow=hidden;rotatable=0;points=[[0,0.5],[1,0.5]];portConstraint=eastwest;" vertex="1" parent="Dt_I4PsViv_D9WkN6TSs-128">
          <mxGeometry y="338" width="170" height="26" as="geometry" />
        </mxCell>
        <mxCell id="Dt_I4PsViv_D9WkN6TSs-133" value="" style="group" vertex="1" connectable="0" parent="1">
          <mxGeometry x="310" y="85" width="15" height="20" as="geometry" />
        </mxCell>
        <mxCell id="Dt_I4PsViv_D9WkN6TSs-105" value="" style="group;rotation=90;" vertex="1" connectable="0" parent="Dt_I4PsViv_D9WkN6TSs-133">
          <mxGeometry y="5" width="20" height="10" as="geometry" />
        </mxCell>
        <mxCell id="Dt_I4PsViv_D9WkN6TSs-106" value="" style="triangle;whiteSpace=wrap;html=1;rotation=90;fillColor=#f8cecc;strokeColor=#b85450;" vertex="1" parent="Dt_I4PsViv_D9WkN6TSs-105">
          <mxGeometry x="5" y="-5" width="10" height="10" as="geometry" />
        </mxCell>
        <mxCell id="Dt_I4PsViv_D9WkN6TSs-107" value="" style="triangle;whiteSpace=wrap;html=1;rotation=-90;fillColor=#f8cecc;strokeColor=#b85450;" vertex="1" parent="Dt_I4PsViv_D9WkN6TSs-105">
          <mxGeometry x="5" y="5" width="10" height="10" as="geometry" />
        </mxCell>
        <mxCell id="Dt_I4PsViv_D9WkN6TSs-108" style="edgeStyle=orthogonalEdgeStyle;rounded=0;orthogonalLoop=1;jettySize=auto;html=1;entryX=1;entryY=0.5;entryDx=0;entryDy=0;endArrow=none;endFill=0;fillColor=#f8cecc;strokeColor=#b85450;" edge="1" parent="Dt_I4PsViv_D9WkN6TSs-105" source="Dt_I4PsViv_D9WkN6TSs-109" target="Dt_I4PsViv_D9WkN6TSs-106">
          <mxGeometry relative="1" as="geometry">
            <Array as="points">
              <mxPoint x="11" y="5" />
              <mxPoint x="11" y="5" />
            </Array>
          </mxGeometry>
        </mxCell>
        <mxCell id="Dt_I4PsViv_D9WkN6TSs-109" value="" style="rounded=0;whiteSpace=wrap;html=1;fillColor=#f5f5f5;strokeColor=#666666;fontColor=#333333;rotation=90;" vertex="1" parent="Dt_I4PsViv_D9WkN6TSs-105">
          <mxGeometry x="11" y="4" width="6.666666666666666" height="2" as="geometry" />
        </mxCell>
        <mxCell id="Dt_I4PsViv_D9WkN6TSs-132" value="" style="shape=singleArrow;direction=south;whiteSpace=wrap;html=1;rounded=1;shadow=0;glass=0;sketch=0;fontSize=7;fillColor=#B85450;verticalAlign=middle;strokeWidth=0;arrowWidth=0.2041343669250687;arrowSize=0.44883720930232585;strokeColor=#b85450;" vertex="1" parent="Dt_I4PsViv_D9WkN6TSs-133">
          <mxGeometry y="5" width="7.5" height="12.5" as="geometry" />
        </mxCell>
        <mxCell id="Dt_I4PsViv_D9WkN6TSs-145" value="&lt;font style=&quot;font-size: 12px&quot;&gt;TANK TRANSITIONS&lt;/font&gt;" style="swimlane;fontStyle=0;childLayout=stackLayout;horizontal=1;startSize=26;fillColor=none;horizontalStack=0;resizeParent=1;resizeParentMax=0;resizeLast=0;collapsible=1;marginBottom=0;rounded=1;shadow=0;glass=0;sketch=0;fontSize=7;verticalAlign=middle;html=1;" vertex="1" parent="1">
          <mxGeometry x="215" y="650" width="450" height="364" as="geometry" />
        </mxCell>
        <mxCell id="Dt_I4PsViv_D9WkN6TSs-146" value="0 → 8: Random time between 2 and 50 seconds &amp; Feeding line is free" style="text;strokeColor=none;fillColor=none;align=left;verticalAlign=top;spacingLeft=4;spacingRight=4;overflow=hidden;rotatable=0;points=[[0,0.5],[1,0.5]];portConstraint=eastwest;" vertex="1" parent="Dt_I4PsViv_D9WkN6TSs-145">
          <mxGeometry y="26" width="450" height="26" as="geometry" />
        </mxCell>
        <mxCell id="Dt_I4PsViv_D9WkN6TSs-147" value="8 → 9: Inlet valve is fully opened with 2 added seconds of safety&#xa;" style="text;strokeColor=none;fillColor=none;align=left;verticalAlign=top;spacingLeft=4;spacingRight=4;overflow=hidden;rotatable=0;points=[[0,0.5],[1,0.5]];portConstraint=eastwest;" vertex="1" parent="Dt_I4PsViv_D9WkN6TSs-145">
          <mxGeometry y="52" width="450" height="26" as="geometry" />
        </mxCell>
        <mxCell id="Dt_I4PsViv_D9WkN6TSs-148" value="9 → 10: Feeding line pump has started&#xa;" style="text;strokeColor=none;fillColor=none;align=left;verticalAlign=top;spacingLeft=4;spacingRight=4;overflow=hidden;rotatable=0;points=[[0,0.5],[1,0.5]];portConstraint=eastwest;" vertex="1" parent="Dt_I4PsViv_D9WkN6TSs-145">
          <mxGeometry y="78" width="450" height="26" as="geometry" />
        </mxCell>
        <mxCell id="Dt_I4PsViv_D9WkN6TSs-149" value="10 → 11: LSH is triggered&#xa;" style="text;strokeColor=none;fillColor=none;align=left;verticalAlign=top;spacingLeft=4;spacingRight=4;overflow=hidden;rotatable=0;points=[[0,0.5],[1,0.5]];portConstraint=eastwest;" vertex="1" parent="Dt_I4PsViv_D9WkN6TSs-145">
          <mxGeometry y="104" width="450" height="26" as="geometry" />
        </mxCell>
        <mxCell id="Dt_I4PsViv_D9WkN6TSs-150" value="11 → 12: Pump has stopped with 2 added seconds of safety" style="text;strokeColor=none;fillColor=none;align=left;verticalAlign=top;spacingLeft=4;spacingRight=4;overflow=hidden;rotatable=0;points=[[0,0.5],[1,0.5]];portConstraint=eastwest;" vertex="1" parent="Dt_I4PsViv_D9WkN6TSs-145">
          <mxGeometry y="130" width="450" height="26" as="geometry" />
        </mxCell>
        <mxCell id="Dt_I4PsViv_D9WkN6TSs-151" value="12 → 20: Inlet valve has closed completely" style="text;strokeColor=none;fillColor=none;align=left;verticalAlign=top;spacingLeft=4;spacingRight=4;overflow=hidden;rotatable=0;points=[[0,0.5],[1,0.5]];portConstraint=eastwest;" vertex="1" parent="Dt_I4PsViv_D9WkN6TSs-145">
          <mxGeometry y="156" width="450" height="26" as="geometry" />
        </mxCell>
        <mxCell id="Dt_I4PsViv_D9WkN6TSs-152" value="20 → 25: Random time between 2 and 50 seconds&#xa;" style="text;strokeColor=none;fillColor=none;align=left;verticalAlign=top;spacingLeft=4;spacingRight=4;overflow=hidden;rotatable=0;points=[[0,0.5],[1,0.5]];portConstraint=eastwest;" vertex="1" parent="Dt_I4PsViv_D9WkN6TSs-145">
          <mxGeometry y="182" width="450" height="26" as="geometry" />
        </mxCell>
        <mxCell id="Dt_I4PsViv_D9WkN6TSs-153" value="25 → 28: Temperature reached and stable for 30 seconds &amp; draining line is free" style="text;strokeColor=none;fillColor=none;align=left;verticalAlign=top;spacingLeft=4;spacingRight=4;overflow=hidden;rotatable=0;points=[[0,0.5],[1,0.5]];portConstraint=eastwest;" vertex="1" parent="Dt_I4PsViv_D9WkN6TSs-145">
          <mxGeometry y="208" width="450" height="26" as="geometry" />
        </mxCell>
        <mxCell id="Dt_I4PsViv_D9WkN6TSs-154" value="28 → 29: Outlet valve has opened completely with 2 added seconds of safety" style="text;strokeColor=none;fillColor=none;align=left;verticalAlign=top;spacingLeft=4;spacingRight=4;overflow=hidden;rotatable=0;points=[[0,0.5],[1,0.5]];portConstraint=eastwest;" vertex="1" parent="Dt_I4PsViv_D9WkN6TSs-145">
          <mxGeometry y="234" width="450" height="26" as="geometry" />
        </mxCell>
        <mxCell id="Dt_I4PsViv_D9WkN6TSs-155" value="29 → 30: Draining pump has started" style="text;strokeColor=none;fillColor=none;align=left;verticalAlign=top;spacingLeft=4;spacingRight=4;overflow=hidden;rotatable=0;points=[[0,0.5],[1,0.5]];portConstraint=eastwest;" vertex="1" parent="Dt_I4PsViv_D9WkN6TSs-145">
          <mxGeometry y="260" width="450" height="26" as="geometry" />
        </mxCell>
        <mxCell id="Dt_I4PsViv_D9WkN6TSs-156" value="30 → 31: LSL is triggered" style="text;strokeColor=none;fillColor=none;align=left;verticalAlign=top;spacingLeft=4;spacingRight=4;overflow=hidden;rotatable=0;points=[[0,0.5],[1,0.5]];portConstraint=eastwest;" vertex="1" parent="Dt_I4PsViv_D9WkN6TSs-145">
          <mxGeometry y="286" width="450" height="26" as="geometry" />
        </mxCell>
        <mxCell id="Dt_I4PsViv_D9WkN6TSs-157" value="31 → 32: Draining pump has stopped with 2 added seconds of safety" style="text;strokeColor=none;fillColor=none;align=left;verticalAlign=top;spacingLeft=4;spacingRight=4;overflow=hidden;rotatable=0;points=[[0,0.5],[1,0.5]];portConstraint=eastwest;" vertex="1" parent="Dt_I4PsViv_D9WkN6TSs-145">
          <mxGeometry y="312" width="450" height="26" as="geometry" />
        </mxCell>
        <mxCell id="Dt_I4PsViv_D9WkN6TSs-158" value="32 → 0: Outlet valve has closed completely" style="text;strokeColor=none;fillColor=none;align=left;verticalAlign=top;spacingLeft=4;spacingRight=4;overflow=hidden;rotatable=0;points=[[0,0.5],[1,0.5]];portConstraint=eastwest;" vertex="1" parent="Dt_I4PsViv_D9WkN6TSs-145">
          <mxGeometry y="338" width="450" height="26" as="geometry" />
        </mxCell>
        <mxCell id="Dt_I4PsViv_D9WkN6TSs-159" value="&lt;span style=&quot;font-size: 12px&quot;&gt;Notes&lt;/span&gt;" style="swimlane;fontStyle=0;childLayout=stackLayout;horizontal=1;startSize=26;fillColor=none;horizontalStack=0;resizeParent=1;resizeParentMax=0;resizeLast=0;collapsible=1;marginBottom=0;rounded=1;shadow=0;glass=0;sketch=0;fontSize=7;verticalAlign=middle;html=1;" vertex="1" parent="1">
          <mxGeometry x="670" y="650" width="430" height="240" as="geometry" />
        </mxCell>
        <mxCell id="Dt_I4PsViv_D9WkN6TSs-160" value="Tank 1 and 2 can not be filled or emptied at the same time" style="text;strokeColor=none;fillColor=none;align=left;verticalAlign=top;spacingLeft=4;spacingRight=4;overflow=hidden;rotatable=0;points=[[0,0.5],[1,0.5]];portConstraint=eastwest;" vertex="1" parent="Dt_I4PsViv_D9WkN6TSs-159">
          <mxGeometry y="26" width="430" height="26" as="geometry" />
        </mxCell>
        <mxCell id="Dt_I4PsViv_D9WkN6TSs-161" value="Tank 1 and 2 can be heating up at the same time" style="text;strokeColor=none;fillColor=none;align=left;verticalAlign=top;spacingLeft=4;spacingRight=4;overflow=hidden;rotatable=0;points=[[0,0.5],[1,0.5]];portConstraint=eastwest;" vertex="1" parent="Dt_I4PsViv_D9WkN6TSs-159">
          <mxGeometry y="52" width="430" height="26" as="geometry" />
        </mxCell>
        <mxCell id="Dt_I4PsViv_D9WkN6TSs-162" value="Everything is automatic: the number of runs in a batch is randomly chosen at&#xa;the start of the batch. The same goes for the number of batches in a shift." style="text;strokeColor=none;fillColor=none;align=left;verticalAlign=top;spacingLeft=4;spacingRight=4;overflow=hidden;rotatable=0;points=[[0,0.5],[1,0.5]];portConstraint=eastwest;" vertex="1" parent="Dt_I4PsViv_D9WkN6TSs-159">
          <mxGeometry y="78" width="430" height="42" as="geometry" />
        </mxCell>
        <mxCell id="Dt_I4PsViv_D9WkN6TSs-163" value="The rate of heating, filling and emptying, and the amount of steam used should&#xa; be different for each tank" style="text;strokeColor=none;fillColor=none;align=left;verticalAlign=top;spacingLeft=4;spacingRight=4;overflow=hidden;rotatable=0;points=[[0,0.5],[1,0.5]];portConstraint=eastwest;" vertex="1" parent="Dt_I4PsViv_D9WkN6TSs-159">
          <mxGeometry y="120" width="430" height="40" as="geometry" />
        </mxCell>
        <mxCell id="Dt_I4PsViv_D9WkN6TSs-164" value="Clicking &quot;increase temperature&quot; on a tank creates an anomaly where the &#xa;temperature increases to above the desired temperature" style="text;strokeColor=none;fillColor=none;align=left;verticalAlign=top;spacingLeft=4;spacingRight=4;overflow=hidden;rotatable=0;points=[[0,0.5],[1,0.5]];portConstraint=eastwest;" vertex="1" parent="Dt_I4PsViv_D9WkN6TSs-159">
          <mxGeometry y="160" width="430" height="40" as="geometry" />
        </mxCell>
        <mxCell id="Dt_I4PsViv_D9WkN6TSs-173" value="The amount of steam should be capped (this will be noticeable when the two &#xa;tanks use steam at the same time, causing heating to be slower)" style="text;strokeColor=none;fillColor=none;align=left;verticalAlign=top;spacingLeft=4;spacingRight=4;overflow=hidden;rotatable=0;points=[[0,0.5],[1,0.5]];portConstraint=eastwest;" vertex="1" parent="Dt_I4PsViv_D9WkN6TSs-159">
          <mxGeometry y="200" width="430" height="40" as="geometry" />
        </mxCell>
      </root>
    </mxGraphModel>
  </diagram>
</mxfile>
